<svg width="15" height="14" viewBox="0 0 15 14" fill="none" xmlns="http://www.w3.org/2000/svg">
<path d="M4.25 1.6123L4.76885 0.757439L4.25 0.442531L3.73115 0.757439L4.25 1.6123ZM7.25 3.43311L6.73115 4.28798L7.25 4.60289L7.76885 4.28798L7.25 3.43311ZM1.25 3.43311L0.731151 2.57825L0.25 2.87028V3.43311H1.25ZM1.25 7.33485H0.25V7.79637L0.601203 8.09581L1.25 7.33485ZM7.25 12.4505L6.6012 13.2114L7.25 13.7646L7.8988 13.2114L7.25 12.4505ZM13.25 7.33485L13.8988 8.09581L14.25 7.79637V7.33485H13.25ZM13.25 3.43311H14.25V2.87028L13.7688 2.57825L13.25 3.43311ZM10.25 1.6123L10.7689 0.757439L10.25 0.442531L9.73115 0.757439L10.25 1.6123ZM3.73115 2.46717L6.73115 4.28798L7.76885 2.57825L4.76885 0.757439L3.73115 2.46717ZM1.76885 4.28798L4.76885 2.46717L3.73115 0.757439L0.731151 2.57825L1.76885 4.28798ZM2.25 7.33485V3.43311H0.25V7.33485H2.25ZM7.8988 11.6895L1.8988 6.57389L0.601203 8.09581L6.6012 13.2114L7.8988 11.6895ZM7.8988 13.2114L13.8988 8.09581L12.6012 6.57389L6.6012 11.6895L7.8988 13.2114ZM14.25 7.33485V3.43311H12.25V7.33485H14.25ZM13.7688 2.57825L10.7689 0.757439L9.73115 2.46717L12.7312 4.28798L13.7688 2.57825ZM9.73115 0.757439L6.73115 2.57825L7.76885 4.28798L10.7689 2.46717L9.73115 0.757439Z" fill="white"/>
</svg>
